<svg xmlns="http://www.w3.org/2000/svg" width="24" height="24" viewBox="0 0 24 24" fill="none" stroke="currentColor" stroke-width="1.4" stroke-linecap="round" stroke-linejoin="round">
  <path d="M12 2C6.48 2 2 6.48 2 12c0 5.52 4.48 10 10 10 .83 0 1.5-.67 1.5-1.5 0-.39-.15-.74-.39-1-.23-.27-.38-.61-.38-1 0-.83.67-1.5 1.5-1.5H16c2.76 0 5-2.24 5-5 0-4.42-4.03-8-9-8z"/><circle cx="6.5" cy="11.5" r="1.5" fill="currentColor" stroke="none"/><circle cx="9.5" cy="7.5" r="1.5" fill="currentColor" stroke="none"/><circle cx="14.5" cy="7.5" r="1.5" fill="currentColor" stroke="none"/>
</svg>